/* XPM */
static char * right3_xpm[] = {
"23 31 34 1",
" 	c None",
".	c #47120D",
"+	c #732612",
"@	c #A83D3B",
"#	c #C76B69",
"$	c #64301C",
"%	c #3F1D16",
"&	c #E38A8C",
"*	c #914740",
"=	c #B1706A",
"-	c #CD8D8C",
";	c #944B5D",
">	c #BF9996",
",	c #FFD9AD",
"'	c #B58682",
")	c #D48C52",
"!	c #753E2D",
"~	c #000000",
"{	c #AA7369",
"]	c #EBB385",
"^	c #141414",
"/	c #949494",
"(	c #D3D3D3",
"_	c #28446C",
":	c #1A1F2F",
"<	c #4A526B",
"[	c #333B4F",
"}	c #757A8F",
"|	c #344C78",
"1	c #182038",
"2	c #4C6CB3",
"3	c #452B2B",
"4	c #78523D",
"5	c #A17854",
"       .++@@@@@@++     ",
"   @@.++@@#####@$$%+   ",
"  @@.+@#&&####$****$$  ",
"  @#.@#&#@@@@*===*=*=$ ",
" +@.+@#@@#&&*=-=$=-%*=$",
" @&.@#@#&&&$=-=$*-$;$*$",
" @.+@##@##@*--*%*$>,'*%",
"+#.+@@##+@$=-*$%$>,,'$%",
"+#.+@+##@+*==$%>,,,,)% ",
"+#.+@+@#@+*=*$>,,,,,!~ ",
"+#.++@+@@$*=${!!!,,]~  ",
"+#@.+@@+^$**$)/~~]]]~  ",
".#@.++@^]$*$%)(~~]]]~  ",
".@@+.++^]$*$>](__]]]~  ",
".@@+~.+.^%*$,,(__,,,~  ",
".+@+ ^.+.%$%,,,,,,,,~  ",
" +@+  ~...%',,,,,,,)~  ",
" .@+  :^^^%!],,,,])~   ",
" .++.:<<[:[]!!!!!~~    ",
"  ++:<}<}[<|[[<<1:     ",
"  .+:}}[}[<<2|,)|[:    ",
"   .:[[:[:<}<}<}<[:    ",
"    !]!::[[}[}<}<:!    ",
"   ~!,,!:<[[[[[[::!!   ",
"   ~),,)[<<<[<[<[:)!   ",
"   ~!,,:<<<}<}<}<[!~   ",
"    ~)]:[<}}<<<<<:     ",
"     ~~:::[),,]!:      ",
"     ~33~  ~3444~      ",
"     ~333~ ~33533~     ",
"            ~3454~     "};
